<?xml version="1.0" encoding="UTF-8"?>
<svg id="_レイヤー_2" data-name="レイヤー 2" xmlns="http://www.w3.org/2000/svg" viewBox="0 0 1181.51 1181.51">
  <defs>
    <style>
      .cls-1 {
        fill: #fff;
      }
    </style>
  </defs>
  <g id="_レイヤー_1-2" data-name="レイヤー 1">
    <g>
      <g>
        <path class="cls-1" d="M592.3,373.55c-104.42,0-189.07-84.65-189.07-189.07,0,104.42-84.65,189.07-189.07,189.07,104.42,0,189.07,84.65,189.07,189.07,0-104.42,84.65-189.07,189.07-189.07Z"/>
        <path class="cls-1" d="M781.38,562.63c0,208.85-84.65,378.15-189.07,378.15h405.02c-104.42,0-215.95-169.3-215.95-378.15Z"/>
        <path class="cls-1" d="M403.23,562.63c0,208.85-111.52,378.15-215.95,378.15h405.02c-104.42,0-189.07-169.3-189.07-378.15Z"/>
        <path class="cls-1" d="M781.38,562.63c0-104.42,84.65-189.07,189.07-189.07-104.42,0-189.07-84.65-189.07-189.07,0,104.42-84.65,189.07-189.07,189.07,104.42,0,189.07,84.65,189.07,189.07Z"/>
      </g>
      <path class="cls-1" d="M590.76,1181.51h-.48c-180.21-3.05-361.08-20.5-463.66-126.62C20.51,952.32,3.05,771.44,0,591.23v-.48s0-.48,0-.48C3.05,410.08,20.51,229.2,126.62,126.62,229.2,20.51,410.08,3.05,590.28,0h.48s.48,0,.48,0c180.21,3.04,361.08,20.5,463.67,126.61,106.11,102.58,123.57,283.46,126.61,463.66v.48s0,.48,0,.48c-3.04,180.2-20.5,361.08-126.61,463.67-102.58,106.11-283.46,123.57-463.66,126.61h-.48ZM56.4,590.76c1.87,109.61,9.82,190.97,25.02,255.98,17.54,74.99,45.24,129.91,84.69,167.91l.75.75c37.99,39.45,92.91,67.16,167.91,84.69,65.01,15.2,146.37,23.16,255.98,25.03,109.61-1.87,190.97-9.82,255.98-25.03,74.99-17.54,129.92-45.24,167.91-84.69l.75-.75c39.45-37.99,67.16-92.92,84.69-167.91,15.2-65.01,23.16-146.37,25.02-255.98-1.87-109.61-9.82-190.97-25.02-255.98-17.54-74.99-45.24-129.92-84.69-167.91l-.75-.75c-37.99-39.45-92.91-67.16-167.91-84.69-65.01-15.2-146.37-23.16-255.98-25.02-109.61,1.87-190.97,9.82-255.98,25.02-74.99,17.54-129.92,45.24-167.91,84.69l-.75.75c-39.45,37.99-67.16,92.91-84.69,167.91-15.2,65.01-23.16,146.37-25.02,255.98Z"/>
    </g>
  </g>
</svg>